<?xml version="1.0" encoding="UTF-8"?>
<!DOCTYPE svg PUBLIC "-//W3C//DTD SVG 1.1//EN" "http://www.w3.org/Graphics/SVG/1.1/DTD/svg11.dtd">
<svg xmlns="http://www.w3.org/2000/svg" version="1.1" width="544px" height="599px" style="shape-rendering:geometricPrecision; text-rendering:geometricPrecision; image-rendering:optimizeQuality; fill-rule:evenodd; clip-rule:evenodd" xmlns:xlink="http://www.w3.org/1999/xlink">
<g><path style="opacity:1" stroke="#65B8A4" stroke-width="50" fill="none" d="M 415.5,95.5 C 421.29,95.0962 426.956,95.5962 432.5,97C 434.504,99.8408 435.004,103.007 434,106.5C 412.553,135.95 391.886,165.95 372,196.5C 319.797,280.056 278.13,368.723 247,462.5C 243.076,465.586 238.576,467.086 233.5,467C 227.5,467.667 221.5,467.667 215.5,467C 213.754,466.529 212.087,465.862 210.5,465C 196.451,442.289 181.617,420.122 166,398.5C 149.147,376.972 130.813,356.639 111,337.5C 104.208,330.082 105.041,323.916 113.5,319C 123.996,312.9 134.663,312.233 145.5,317C 176.613,348.767 203.113,383.934 225,422.5C 264.715,309.721 319.048,205.054 388,108.5C 395.871,101.313 405.038,96.98 415.5,95.5 Z"/></g>
</svg>
